<?xml version="1.0" encoding="utf-8"?>
<!DOCTYPE svg PUBLIC "-//W3C//DTD SVG 1.0//EN" "http://www.w3.org/TR/2001/REC-SVG-20010904/DTD/svg10.dtd">
<svg version="1.0" xmlns="http://www.w3.org/2000/svg" width="949px" height="949px" viewBox="0 0 949 949" preserveAspectRatio="xMidYMid meet">
 <g fill="#fdf8cc">
  <path d="M315.4 895.6 l-0.5 -1.3 0.3 -27.9 0.3 -27.9 2.8 -5.7 2.8 -5.6 3.9 -3.6 c2.1 -1.9 5.8 -4.5 8.2 -5.8 l4.3 -2.3 36.3 -0.3 36.2 -0.3 0 -24 0 -24 -1.2 -0.3 c-0.7 -0.2 -7.5 -1.3 -15 -2.5 -43.4 -6.9 -89.7 -23.9 -127.1 -46.6 -4.2 -2.5 -7.7 -4.9 -7.7 -5.1 0 -0.9 15.3 -25.9 16.9 -27.6 l1.6 -1.8 6 3.6 c3.3 2 11.7 6.7 18.7 10.5 l12.7 6.8 8.8 3.4 c20.6 8 25.4 9.7 36.8 13.2 l11.9 3.6 14.6 2.9 c8 1.6 20.1 3.6 27 4.5 l12.5 1.5 16 0.6 16 0.7 15.5 -1.2 c8.5 -0.7 21.6 -2.1 29 -3.2 l13.5 -2.1 17 -4.3 17 -4.3 13 -4.7 c34.5 -12.5 66.5 -30.4 95 -53.1 l11 -8.8 15 -15.1 15.1 -15 7.9 -10 c4.4 -5.5 12.6 -16.8 18.2 -25.2 l10.2 -15.3 9.4 -18.8 9.3 -18.7 4.8 -13 c8.6 -23.5 14.4 -46.2 18.3 -72 l1.8 -12 0 -31 0 -31 -1.8 -12 c-7.9 -52.3 -24.6 -96.8 -51.8 -138 -10.8 -16.3 -19.2 -27.1 -31.7 -40.5 -30.5 -33 -58.6 -53.5 -105.7 -77.3 l-11.1 -5.6 -19.7 -6.6 c-10.9 -3.6 -20.4 -6.5 -21.2 -6.5 -0.8 0 -1.7 -0.4 -2 -1 l-0.6 -1 4.1 -14.7 c2.3 -8.2 4.6 -15.3 5.1 -16 l1 -1.1 6.7 1.8 c20.8 5.8 41.7 13.9 64.2 25.1 l17.5 8.7 12.5 7.9 c57.2 35.9 102.3 85.7 132.4 146.1 l7.4 14.7 5.5 14 c15.4 39 23.3 77.1 25.3 122.5 l0.6 14.5 -1.1 17 c-2.7 38.5 -9.7 71.7 -22.2 104.9 -17 45 -39.7 82.3 -72.4 118.6 l-10.6 11.9 -11.7 10.5 c-42.4 38.1 -83.4 61.7 -136.8 78.9 l-13.9 4.5 -13.5 3 c-7.4 1.7 -18.4 3.8 -24.5 4.7 -6 0.9 -12 1.9 -13.2 2.1 l-2.3 0.4 0 24 0 23.9 36.3 0.3 36.2 0.3 4.5 2.4 4.5 2.3 3.8 3.7 3.9 3.6 2.3 4.5 2.3 4.5 1.1 5.5 1.2 5.5 -0.3 24.5 -0.3 24.5 -136.8 0.3 -136.8 0.2 -0.5 -1.4z"/>
  <path d="M425.5 710.5 c-16 -2.2 -35.9 -5.6 -41.5 -7 -11.2 -2.9 -30.9 -8.8 -42.5 -12.8 l-12 -4.1 -16 -7.9 c-19.3 -9.7 -31.4 -16.7 -42.2 -24.4 l-8.1 -5.8 -15.8 -14.6 c-8.8 -8.1 -21.7 -20.7 -28.9 -28.1 l-13 -13.4 -8.2 -11.4 c-4.4 -6.3 -11.3 -16.7 -15.2 -23.1 l-7 -11.7 -6.1 -14.1 -6 -14.1 -4.4 -15.2 c-5.7 -20.3 -10.9 -41.6 -13.6 -56.2 l-2.1 -11.9 -0.6 -10.1 -0.6 -10.1 1.2 -23.5 1.2 -23.5 2.9 -21 3 -21 5.9 -17.5 c11 -32.6 16 -44 26.1 -59 3.1 -4.7 7.4 -11.6 9.4 -15.5 l3.6 -7 8 -11 c11.4 -15.6 19.5 -25.8 26.5 -32.9 14 -14.3 38.1 -34.1 53.3 -44 l7.4 -4.7 21.3 -10.5 21.4 -10.4 9.8 -3.6 c5.4 -1.9 16.7 -5.8 25.2 -8.5 l15.4 -4.9 6.6 -1 c3.6 -0.5 9.3 -1.5 12.6 -2 3.3 -0.6 11 -1.8 17 -2.5 l11 -1.5 10.5 0 c23.3 0 63.2 3.5 75.5 6.6 15.2 3.9 37 11.7 63.5 22.9 25.8 10.8 55.3 28.7 78.2 47.4 l8.6 7.1 9.4 10.2 c5.1 5.6 12.9 14 17.4 18.7 9.5 10.1 25.4 30 33.1 41.5 l5.4 8.1 4.8 10 4.8 10 5.2 15.8 c2.9 8.7 7 23.1 9.2 32 l4 16.2 2.6 22 2.5 22 -0.6 20 c-1.1 32.8 -3.6 55.6 -7.1 62.5 -0.7 1.4 -1.6 4.7 -1.9 7.3 -0.4 2.6 -1.6 7.3 -2.6 10.3 -1.1 3 -2.4 8.1 -3 11.2 l-1 5.7 -3.5 7 c-1.9 3.9 -3.5 7.7 -3.5 8.6 l0 1.7 -1.5 1.2 -1.5 1.2 0 1.7 c0 0.9 -0.6 2.5 -1.4 3.6 -0.7 1.1 -3 6 -5 10.8 -5.6 13.6 -11.7 25 -20.5 38.7 l-8 12.5 -7.8 9.4 c-10.7 12.9 -24.9 27.6 -33.4 34.7 -3.9 3.2 -9.4 8.2 -12.2 10.9 -2.9 2.8 -6.9 6.4 -9 8 -2.1 1.7 -5.7 4.5 -8 6.3 -13.4 10.4 -41.8 26.3 -53.7 30 -3.7 1.1 -11.8 3.9 -31 10.3 -6.3 2.2 -13.5 5 -16 6.3 l-4.5 2.4 -11 2.5 c-6 1.4 -18 3.7 -26.5 5.1 l-15.4 2.6 -20.6 -0.1 -20.5 -0.1 -9 -1.3z m65 -35.9 c3.3 -0.8 9.2 -1.9 13 -2.5 3.9 -0.6 13.3 -2.8 21 -5 l14 -4 15.6 -6.1 c8.6 -3.3 16.4 -6.7 17.4 -7.4 l1.8 -1.3 -0.6 -2.6 -0.7 -2.5 -10.7 -10.6 -10.8 -10.5 -12 -9.1 -11.9 -9.2 -15.1 15.4 -15 15.4 -17.5 14.4 c-9.6 8 -19.7 16.6 -22.3 19.2 l-4.9 4.7 0.4 1.3 0.4 1.2 2.5 0.8 2.4 0.7 13.5 -0.4 13.5 -0.5 6 -1.4z m-67.2 -11.3 l17.2 -8.8 10 -6.6 c5.5 -3.7 12.8 -9.1 16.2 -12 21 -18.4 25.3 -22.3 29.8 -27.5 6.5 -7.5 12.5 -15.5 12.5 -16.7 0 -2.2 -10.8 -9.5 -26.6 -18 -6.5 -3.6 -16.2 -9.1 -21.4 -12.4 -12.9 -8.1 -22.9 -13.5 -33 -17.8 -4.7 -2 -10 -4.3 -11.7 -5.1 l-3.2 -1.4 -1.6 2.4 c-1.5 2.3 -12.9 29.4 -38.1 90.6 l-11.3 27.5 1.6 1.7 1.6 1.8 9.7 3 c8.2 2.5 27.7 7.6 30.3 7.9 0.5 0.1 8.6 -3.8 18 -8.6z m-93 -21.2 l2.4 -2.9 4.8 -11.4 c7.5 -17.7 22.4 -53.7 24.7 -59.6 l2.1 -5.4 9.1 0.6 c5 0.4 11.7 0.9 14.9 1.2 l5.7 0.6 2.4 -5.4 c1.3 -2.9 10.3 -25.1 20.1 -49.3 9.7 -24.2 31.2 -77.2 47.6 -117.8 16.5 -40.6 29.9 -74.4 29.9 -75.2 l0 -1.4 -5.4 -5.8 -5.4 -5.8 -1.1 1 c-0.6 0.6 -22.9 54.3 -49.7 119.5 -26.7 65.2 -49.2 119 -49.8 119.6 l-1.1 1.1 -26.3 -1.8 c-14.5 -0.9 -26.5 -1.9 -26.7 -2.1 -0.1 -0.2 -3.7 -8.7 -8 -19 l-7.7 -18.7 -1.1 -0.9 c-0.7 -0.5 -7.2 -2.4 -14.6 -4.1 l-13.4 -3.2 -0.8 0.8 -0.8 0.8 -1.6 15 -1.7 15 0.5 12.5 0.6 12.5 2 11 c1.1 6.1 4.3 20.1 7 31.2 l5.1 20.2 2.3 5.4 2.4 5.3 5.4 4.6 c5.7 4.8 20.6 14.6 22.6 14.7 l1.1 0.1 2.5 -2.9z m277.8 -13.3 c4.1 -2.8 14.4 -10.9 22.9 -17.8 l15.5 -12.7 8.5 -9.4 c14 -15.4 18.3 -20.8 25.9 -32.4 l7.2 -11 6 -11.8 6 -11.7 -4.8 -2.1 c-2.6 -1.1 -19.2 -8.2 -36.7 -15.7 l-31.9 -13.7 17.2 -0.3 17.1 -0.2 0 -12.5 0 -12.5 1.2 0 c0.7 0 12.4 4.8 26.1 10.6 l24.9 10.6 0.6 -0.6 c0.3 -0.4 2 -4.4 3.8 -8.9 3.2 -8.4 4 -11.4 7.1 -29.2 l1.8 -10 -0.1 -29.5 0 -29.5 -2.2 -14 -2.2 -14 0 -18.7 0 -18.6 -8.8 -8.9 -8.8 -8.8 -2.3 -6.5 c-1.2 -3.6 -5.4 -12.8 -9.1 -20.5 l-6.9 -14 -6.1 -8.5 c-8.6 -11.8 -35 -41 -35 -38.7 0 0.4 1.1 6.8 2.5 14.2 l2.5 13.5 1.5 24.8 c0.9 13.7 1.9 26.8 2.3 29.3 l0.7 4.4 15 0.6 c8.3 0.4 18.8 0.7 23.4 0.8 l8.4 0.1 -0.7 30.2 c-0.4 16.7 -0.9 30.5 -1.1 30.7 -0.2 0.2 -25.3 -0.4 -55.7 -1.3 -30.4 -0.9 -59.2 -1.6 -64 -1.6 l-8.8 0 0 42.5 0 42.5 7 0 7 0 0 -3 c0 -1.6 0.2 -3 0.5 -3 0.3 0 3.3 1.2 6.7 2.6 l6.1 2.5 0.8 -0.8 c2.2 -2.2 17.5 -44.6 21.2 -58.8 l2.4 -9 9.7 -0.3 9.8 -0.3 -0.5 1.8 c-1.2 4.3 -8.1 27.5 -10.3 34.3 -2.8 8.9 -8.4 30.5 -8.4 32.5 l0 1.4 11.8 0.3 11.7 0.3 0 17 0 17 -37.5 0 -37.5 0 -0.5 36.5 -0.5 36.5 -22.5 -0.3 c-12.4 -0.1 -27.2 -0.5 -32.9 -0.9 l-10.4 -0.6 0.7 -16.1 c0.3 -8.8 0.7 -32.2 0.8 -51.8 l0.3 -35.7 -1 -1 c-1.1 -1.1 -42.7 -19.1 -44.2 -19.1 l-0.9 0 -18.7 45 c-10.3 24.7 -18.7 45.6 -18.7 46.4 l0 1.4 9.3 5.5 c5 3 21.9 11.8 37.5 19.6 33.8 16.9 44.7 22.8 52.7 28.8 l6 4.4 3.3 -3.5 3.2 -3.6 12.1 0 12.1 0 -0.4 0.9 c-0.1 0.5 -3.3 4.6 -7 9 -3.8 4.5 -6.8 8.5 -6.8 9 0 0.5 7.1 7.4 15.8 15.4 8.6 8 20.4 19.3 26.2 25.1 l10.5 10.6 1.6 0 1.6 0 7.4 -5.2z m-344.6 -43.5 c-0.7 -4.8 -1.8 -13.4 -2.5 -19 l-1.3 -10.3 0.5 -26.7 0.6 -26.8 -0.7 -5.5 -0.6 -5.5 -6.5 -1.2 c-3.6 -0.6 -12 -1.5 -18.8 -1.9 l-12.2 -0.7 -10.5 1.3 -10.6 1.3 -0.4 0.8 -0.5 0.7 2.6 8.8 c1.4 4.9 3.8 12.5 5.3 17 l2.8 8.1 6.2 10.4 6.2 10.4 9.5 12 c17.5 22 19.9 24.9 25.3 30.7 l5.4 5.8 0.7 -0.5 0.7 -0.4 -1.2 -8.8z m36.5 -111.8 c0 -0.7 -9.1 -22.8 -10.3 -25 l-1.1 -2 -0.7 4 c-0.5 2.2 -0.8 7.9 -0.8 12.7 l-0.1 8.7 3.8 0.6 c2 0.4 4.2 0.8 4.7 1 1.5 0.5 4.5 0.6 4.5 0z m-34.1 -8.8 c0.5 -1.3 1.2 -5 1.6 -8.3 l0.8 -5.9 4.3 -14.4 c2.4 -7.9 4.4 -15.4 4.4 -16.5 l0 -2.1 -19.2 -46.7 -19.2 -46.8 -20 -8.5 -19.9 -8.6 -1.4 0.5 -1.3 0.5 -2.6 5.8 c-5 11.4 -8.3 26.5 -10.5 48.8 l-1.2 12 0.6 18.5 0.6 18.5 2 14.1 c1.9 13.7 5.6 31.5 7.1 34.3 l0.7 1.4 17.4 0.4 17.4 0.4 5.4 0.9 c3 0.6 8.4 1 12 1 l6.6 0 4.5 1.4 c2.5 0.8 5.5 1.5 6.8 1.5 l2.2 0.1 0.9 -2.3z m97.1 -42.9 l13.2 -36.8 -0.5 -1.2 -0.5 -1.3 -29.8 -12.6 c-16.5 -7 -30.6 -12.9 -31.5 -13.2 l-1.6 -0.5 -9.1 -23.7 c-5.1 -13.1 -9.1 -24 -8.8 -24.2 0.2 -0.2 4.2 1.2 8.9 3.2 4.7 1.9 8.8 3.5 9.1 3.5 0.3 0 3 -4.8 6 -10.7 6.9 -13.8 15.8 -28.9 27.9 -47.6 5.3 -8.1 10.6 -16.8 11.9 -19.3 l2.2 -4.6 -10.1 -9.4 -10.2 -9.5 -12.3 -14.6 c-6.8 -8 -14.5 -17.4 -17.3 -20.9 l-5 -6.4 -2.6 0.5 -2.7 0.4 -11.3 7.1 -11.4 7.2 -17.3 17.3 -17.3 17.3 -7.5 10.4 c-11.9 16.5 -22.3 32.3 -23.5 35.8 l-1.1 3.2 0.8 0.8 c0.5 0.4 12.7 5.8 27 11.9 l26.2 11.1 1.9 0 c1.1 0 4.6 -0.9 7.8 -2 l5.9 -2 0.6 0.7 c0.9 1.1 2.6 5.4 36.1 90.8 16.5 42.4 30.3 77.4 30.6 77.9 l0.6 0.9 0.7 -1.4 c0.5 -0.8 6.8 -17.9 14 -38.1z m144.5 -47 c0.3 -12.8 0.5 -32.3 0.3 -43.3 l-0.3 -20 -1 0 -1 0 -6.1 14.5 c-3.4 8 -10.1 24 -14.9 35.7 l-8.7 21.2 0.4 1.2 0.4 1.3 14.5 6.2 c7.9 3.4 14.7 6.3 15 6.3 l0.7 0.1 0.7 -23.2z m-106.5 -58.8 l10.4 -29 2.1 0 c1.1 0.1 14.6 3.4 30 7.4 l28 7.4 1.3 -1 1.2 -1 0 -2.2 0 -2.2 -13.6 -6.4 c-7.5 -3.5 -18.4 -9 -24.2 -12.3 -5.8 -3.2 -15.8 -8.1 -22.1 -11 -13.8 -6.1 -20.1 -9.7 -30 -17.1 -4.1 -3.1 -7.9 -5.6 -8.5 -5.6 l-1.1 0 -2.9 5.3 c-1.6 2.8 -7.2 12 -12.4 20.2 -5.3 8.3 -11.6 18.6 -14 23 -9.9 17.8 -15.2 28.1 -15.2 29.6 l0 1.6 4.8 2.1 c2.6 1.2 15.7 6.9 29.2 12.6 l24.5 10.4 1.1 -1.3 c0.6 -0.8 5.7 -14.5 11.4 -30.5z m231.6 -24.5 l0.6 -1.5 -1.2 -21.2 c-0.6 -11.7 -1.5 -25.1 -2 -29.8 l-0.8 -8.5 -2.6 -11.6 -2.7 -11.7 -2.5 -6.3 c-1.4 -3.5 -5.1 -11.7 -8.1 -18.2 l-5.6 -11.7 -9.1 -5.8 -9.1 -5.9 -6.8 -2.6 -6.7 -2.7 -2.6 0 -2.5 0 -2.6 5.8 c-2.7 6 -19.3 46.2 -37 89.2 l-10.5 25.5 0.9 1.4 1 1.5 18.5 6.7 18.5 6.8 27.9 0.9 c15.3 0.5 31.6 1 36.2 1 l8.3 0.2 0.5 -1.5z m-118.9 -89 c13.5 -32.4 24.6 -59.9 24.7 -61 l0.1 -2 -8 -2.6 -8 -2.6 -2.3 0.8 c-1.2 0.5 -7.8 2.4 -14.5 4.3 -6.7 1.9 -16 4.9 -20.6 6.7 l-8.5 3.2 -10 6.8 -10.1 6.8 -17 13.9 -17 13.9 -8.8 9.2 c-4.8 5.1 -10.6 11.7 -12.9 14.7 l-4 5.4 1.1 1.4 1.1 1.3 29.3 14.1 29.2 14.1 14 5.5 14 5.6 1.9 -0.3 1.8 -0.2 24.5 -59z m-127.2 -2.3 l6 -7.7 10 -10 10.1 -10 16.2 -13 c9 -7.1 21.5 -16.6 28 -21 l11.7 -8 0 -1.5 0 -1.4 -2.5 -0.7 -2.5 -0.7 -16.6 -0.1 -16.6 -0.1 -8.9 1.5 c-4.9 0.9 -15 3.1 -22.4 5 l-13.5 3.3 -26.9 8.7 c-14.8 4.8 -28 9.2 -29.3 9.8 l-2.3 1 0 2 0 2 2 3.1 1.9 3.1 17.7 17 c9.8 9.4 20.2 18.9 23.2 21.3 l5.4 4.2 1.7 0 1.6 0 6 -7.8z"/>
 </g>
 <g fill="#f5722c">
  <path d="M425.5 710.5 c-16 -2.2 -35.9 -5.6 -41.5 -7 -11.2 -2.9 -30.9 -8.8 -42.5 -12.8 l-12 -4.1 -16 -7.9 c-19.3 -9.7 -31.4 -16.7 -42.2 -24.4 l-8.1 -5.8 -15.8 -14.6 c-8.8 -8.1 -21.7 -20.7 -28.9 -28.1 l-13 -13.4 -8.2 -11.4 c-4.4 -6.3 -11.3 -16.7 -15.2 -23.1 l-7 -11.7 -6.1 -14.1 -6 -14.1 -4.4 -15.2 c-5.7 -20.3 -10.9 -41.6 -13.6 -56.2 l-2.1 -11.9 -0.6 -10.1 -0.6 -10.1 1.2 -23.5 1.2 -23.5 2.9 -21 3 -21 5.9 -17.5 c11 -32.6 16 -44 26.1 -59 3.1 -4.7 7.4 -11.6 9.4 -15.5 l3.6 -7 8 -11 c11.4 -15.6 19.5 -25.8 26.5 -32.9 14 -14.3 38.1 -34.1 53.3 -44 l7.4 -4.7 21.3 -10.5 21.4 -10.4 9.8 -3.6 c5.4 -1.9 16.7 -5.8 25.2 -8.5 l15.4 -4.9 6.6 -1 c3.6 -0.5 9.3 -1.5 12.6 -2 3.3 -0.6 11 -1.8 17 -2.5 l11 -1.5 10.5 0 c23.3 0 63.2 3.5 75.5 6.6 15.2 3.9 37 11.7 63.5 22.9 25.8 10.8 55.3 28.7 78.2 47.4 l8.6 7.1 9.4 10.2 c5.1 5.6 12.9 14 17.4 18.7 9.5 10.1 25.4 30 33.1 41.5 l5.4 8.1 4.8 10 4.8 10 5.2 15.8 c2.9 8.7 7 23.1 9.2 32 l4 16.2 2.6 22 2.5 22 -0.6 20 c-1.1 32.8 -3.6 55.6 -7.1 62.5 -0.7 1.4 -1.6 4.7 -1.9 7.3 -0.4 2.6 -1.6 7.3 -2.6 10.3 -1.1 3 -2.4 8.1 -3 11.2 l-1 5.7 -3.5 7 c-1.9 3.9 -3.5 7.7 -3.5 8.6 l0 1.7 -1.5 1.2 -1.5 1.2 0 1.7 c0 0.9 -0.6 2.5 -1.4 3.6 -0.7 1.1 -3 6 -5 10.8 -5.6 13.6 -11.7 25 -20.5 38.7 l-8 12.5 -7.8 9.4 c-10.7 12.9 -24.9 27.6 -33.4 34.7 -3.9 3.2 -9.4 8.2 -12.2 10.9 -2.9 2.8 -6.9 6.4 -9 8 -2.1 1.7 -5.7 4.5 -8 6.3 -13.4 10.4 -41.8 26.3 -53.7 30 -3.7 1.1 -11.8 3.9 -31 10.3 -6.3 2.2 -13.5 5 -16 6.3 l-4.5 2.4 -11 2.5 c-6 1.4 -18 3.7 -26.5 5.1 l-15.4 2.6 -20.6 -0.1 -20.5 -0.1 -9 -1.3z m65 -35.9 c3.3 -0.8 9.2 -1.9 13 -2.5 3.9 -0.6 13.3 -2.8 21 -5 l14 -4 15.6 -6.1 c8.6 -3.3 16.4 -6.7 17.4 -7.4 l1.8 -1.3 -0.6 -2.6 -0.7 -2.5 -10.7 -10.6 -10.8 -10.5 -12 -9.1 -11.9 -9.2 -15.1 15.4 -15 15.4 -17.5 14.4 c-9.6 8 -19.7 16.6 -22.3 19.2 l-4.9 4.7 0.4 1.3 0.4 1.2 2.5 0.8 2.4 0.7 13.5 -0.4 13.5 -0.5 6 -1.4z m-67.2 -11.3 l17.2 -8.8 10 -6.6 c5.5 -3.7 12.8 -9.1 16.2 -12 21 -18.4 25.3 -22.3 29.8 -27.5 6.5 -7.5 12.5 -15.5 12.5 -16.7 0 -2.2 -10.8 -9.5 -26.6 -18 -6.5 -3.6 -16.2 -9.1 -21.4 -12.4 -12.9 -8.1 -22.9 -13.5 -33 -17.8 -4.7 -2 -10 -4.3 -11.7 -5.1 l-3.2 -1.4 -1.6 2.4 c-1.5 2.3 -12.9 29.4 -38.1 90.6 l-11.3 27.5 1.6 1.7 1.6 1.8 9.7 3 c8.2 2.5 27.7 7.6 30.3 7.9 0.5 0.1 8.6 -3.8 18 -8.6z m-93 -21.2 l2.4 -2.9 4.8 -11.4 c7.5 -17.7 22.4 -53.7 24.7 -59.6 l2.1 -5.4 9.1 0.6 c5 0.4 11.7 0.9 14.9 1.2 l5.7 0.6 2.4 -5.4 c1.3 -2.9 10.3 -25.1 20.1 -49.3 9.7 -24.2 31.2 -77.2 47.6 -117.8 16.5 -40.6 29.9 -74.4 29.9 -75.2 l0 -1.3 -5.1 -5.7 -5.2 -5.6 -1.3 0.5 -1.4 0.5 0 -0.8 0 -0.9 -4.6 -1.1 -4.7 -1.2 1.2 -1.2 1.1 -1.1 0 -2.1 0 -2.1 -13.6 -6.4 c-7.5 -3.5 -18.4 -9 -24.2 -12.3 -5.8 -3.2 -15.8 -8.1 -22.1 -11 -13.8 -6.1 -20.1 -9.7 -30 -17.1 -4.1 -3.1 -7.9 -5.6 -8.5 -5.6 l-1.1 0 -2.9 5.3 c-1.6 2.8 -7.2 12 -12.4 20.2 -5.3 8.3 -11.6 18.6 -14 23 -10 17.9 -15.2 28.1 -15.2 29.6 l0 1.6 5.8 2.6 c17.7 7.8 51.9 22 53 22 l1.3 0 -0.6 1.6 c-0.4 0.9 -3.4 9.1 -6.7 18.4 l-6 16.7 -1.2 -0.9 c-1 -0.8 -57.8 -25.1 -61.7 -26.4 l-1.6 -0.5 -9.1 -23.7 c-5.1 -13.1 -9.1 -24 -8.8 -24.2 0.2 -0.2 4.2 1.2 8.9 3.2 4.7 1.9 8.8 3.5 9.1 3.5 0.3 0 3 -4.8 6 -10.7 6.9 -13.8 15.8 -28.9 27.9 -47.6 5.3 -8.1 10.6 -16.8 11.9 -19.3 l2.2 -4.6 -10.1 -9.4 -10.2 -9.5 -12.3 -14.6 c-6.8 -8 -14.5 -17.4 -17.3 -20.9 l-5 -6.4 -2.6 0.5 -2.7 0.4 -11.3 7.1 -11.4 7.2 -17.3 17.3 -17.3 17.3 -7.5 10.4 c-11.9 16.5 -22.3 32.3 -23.5 35.8 l-1.1 3.2 0.8 0.8 c0.8 0.8 51.1 22.2 54.3 23.2 l1.5 0.4 -15.4 5.3 c-8.5 2.9 -16.4 5.7 -17.7 6.2 l-2.3 0.8 3.5 8.2 3.4 8.1 -1.2 -0.5 c-0.7 -0.3 -9.7 -4.2 -20.1 -8.6 l-19 -8.2 -1.3 0.5 -1.3 0.5 -2.6 5.8 c-5 11.4 -8.3 26.5 -10.5 48.8 l-1.2 12 0.6 18.5 0.6 18.5 2 14.1 c1.9 13.7 5.6 31.5 7.1 34.3 l0.7 1.4 17.4 0.4 17.4 0.4 5.4 0.9 c3 0.6 8.2 1 11.5 1 l6.1 0 6.7 1.7 6.8 1.7 1 -1 1.1 -1.1 1.4 -8.5 1.3 -8.4 4.3 -14.2 4.3 -14.2 0.8 0.8 c1.1 1.1 11.7 27.3 10.9 26.7 l-0.8 -0.5 -0.7 4.7 c-0.3 2.5 -0.6 8.1 -0.6 12.3 l0 7.8 2.3 0.5 c1.2 0.3 4.3 0.9 6.8 1.2 l4.6 0.7 6.1 15 6.2 15 -1.3 -1 c-0.6 -0.5 -7.2 -2.4 -14.6 -4.1 l-13.4 -3.2 -0.8 0.8 -0.8 0.8 -1.6 15 -1.7 15 0.5 12.5 0.6 12.5 2 11 c1.1 6.1 4.3 20.1 7 31.2 l5.1 20.2 2.3 5.4 2.4 5.3 5.4 4.6 c5.7 4.8 20.6 14.6 22.6 14.7 l1.1 0.1 2.5 -2.9z m277.8 -13.3 c4.1 -2.8 14.4 -10.9 22.9 -17.8 l15.5 -12.7 8.5 -9.4 c14 -15.4 18.3 -20.8 25.9 -32.4 l7.2 -11 6 -11.8 6 -11.7 -4.8 -2.1 c-2.6 -1.1 -19.2 -8.2 -36.7 -15.7 l-31.9 -13.7 17.2 -0.3 17.1 -0.2 0 -12.5 0 -12.5 1.2 0 c0.7 0 12.4 4.8 26.1 10.6 l24.9 10.6 0.6 -0.6 c0.3 -0.4 2 -4.4 3.8 -8.9 3.2 -8.4 4 -11.4 7.1 -29.2 l1.8 -10 -0.1 -29.5 0 -29.5 -2.2 -14 -2.2 -14 0 -18.7 0 -18.6 -8.8 -8.9 -8.8 -8.8 -2.3 -6.5 c-1.2 -3.6 -5.4 -12.8 -9.1 -20.5 l-6.9 -14 -6.1 -8.5 c-8.6 -11.8 -35 -41 -35 -38.7 0 0.4 1.1 6.8 2.5 14.2 l2.5 13.5 1.5 25 c0.9 13.8 1.9 27.1 2.4 29.5 l0.8 4.5 -3.7 0 c-2 0 -7.1 -0.3 -11.3 -0.6 l-7.5 -0.7 0.5 -1.3 0.5 -1.4 -1.2 -21.2 c-0.6 -11.7 -1.5 -25.1 -2 -29.8 l-0.8 -8.5 -2.6 -11.6 -2.7 -11.7 -2.5 -6.3 c-1.4 -3.5 -5.1 -11.7 -8.1 -18.2 l-5.6 -11.7 -9.1 -5.8 -9.1 -5.9 -6.8 -2.6 -6.7 -2.7 -2.6 0 -2.5 0 -2.6 5.7 c-2.7 6.1 -19.3 46.3 -37 89.3 l-10.5 25.5 0.9 1.4 1 1.5 18.4 6.8 18.4 6.9 -14 -0.6 c-7.7 -0.3 -18.9 -0.6 -25 -0.6 l-11 -0.2 -0.3 11.2 -0.3 11.2 -1.7 -0.3 -1.6 -0.3 -6.2 14.5 c-3.4 8 -10.1 24.1 -14.9 35.7 l-8.7 21.2 0.5 1.3 0.5 1.3 15.1 6.4 15.1 6.4 0 20.9 0 20.8 -2.2 -1.4 c-2.8 -1.7 -42.1 -18.6 -43.5 -18.6 l-0.9 0 -18.7 45 c-10.3 24.7 -18.7 45.6 -18.7 46.4 l0 1.4 9.3 5.5 c5 3 21.9 11.8 37.5 19.6 33.8 16.9 44.7 22.8 52.7 28.8 l6 4.4 3.3 -3.5 3.2 -3.6 12.1 0 12.1 0 -0.4 0.9 c-0.1 0.5 -3.3 4.6 -7 9 -3.8 4.5 -6.8 8.5 -6.8 9 0 0.5 7.1 7.4 15.8 15.4 8.6 8 20.4 19.3 26.2 25.1 l10.5 10.6 1.6 0 1.6 0 7.4 -5.2z m-344.6 -43.5 c-0.7 -4.8 -1.8 -13.4 -2.5 -19 l-1.3 -10.3 0.5 -26.7 0.6 -26.8 -0.7 -5.5 -0.6 -5.5 -6.5 -1.2 c-3.6 -0.6 -12 -1.5 -18.8 -1.9 l-12.2 -0.7 -10.5 1.3 -10.6 1.3 -0.4 0.8 -0.5 0.7 2.6 8.8 c1.4 4.9 3.8 12.5 5.3 17 l2.8 8.1 6.2 10.4 6.2 10.4 9.5 12 c17.5 22 19.9 24.9 25.3 30.7 l5.4 5.8 0.7 -0.5 0.7 -0.4 -1.2 -8.8z m250.2 -382.8 c13.5 -32.4 24.6 -59.9 24.7 -61 l0.1 -2 -8 -2.6 -8 -2.6 -2.3 0.8 c-1.2 0.5 -7.8 2.4 -14.5 4.3 -6.7 1.9 -16 4.9 -20.6 6.7 l-8.5 3.2 -10 6.8 -10.1 6.8 -17 13.9 -17 13.9 -8.8 9.2 c-4.8 5.1 -10.6 11.7 -12.9 14.7 l-4 5.4 1.1 1.4 1.1 1.3 29.3 14.1 29.2 14.1 14 5.5 14 5.6 1.9 -0.3 1.8 -0.2 24.5 -59z m-127.2 -2.3 l6 -7.7 10 -10 10.1 -10 16.2 -13 c9 -7.1 21.5 -16.6 28 -21 l11.7 -8 0 -1.5 0 -1.4 -2.5 -0.7 -2.5 -0.7 -16.6 -0.1 -16.6 -0.1 -8.9 1.5 c-4.9 0.9 -15 3.1 -22.4 5 l-13.5 3.3 -26.9 8.7 c-14.8 4.8 -28 9.2 -29.3 9.8 l-2.3 1 0 2 0 2 2 3.1 1.9 3.1 17.7 17 c9.8 9.4 20.2 18.9 23.2 21.3 l5.4 4.2 1.7 0 1.6 0 6 -7.8z"/>
  <path d="M585.1 504.8 l-0.1 -15.8 7.4 0 7.5 0 -1 2.8 c-0.5 1.5 -3.8 8.6 -7.3 15.7 l-6.4 13 -0.1 -15.7z"/>
  <path d="M585 435.3 c0 -1.8 0.2 -3.3 0.5 -3.3 0.3 0 3.3 1.2 6.7 2.6 l6.1 2.5 0.8 -0.8 c2.2 -2.2 17.5 -44.6 21.2 -58.8 l2.4 -9 9.7 -0.3 9.8 -0.3 -0.5 1.8 c-1 3.7 -8 27.1 -10.7 35.8 -1.6 5 -4.1 14.3 -5.7 20.8 l-2.8 11.6 -18.7 0.3 -18.8 0.3 0 -3.2z"/>
 </g>
</svg>