<?xml version="1.0" encoding="utf-8"?>
<!DOCTYPE svg PUBLIC "-//W3C//DTD SVG 1.0//EN" "http://www.w3.org/TR/2001/REC-SVG-20010904/DTD/svg10.dtd">
<svg version="1.0" xmlns="http://www.w3.org/2000/svg" width="2880px" height="2880px" viewBox="0 0 2880 2880" preserveAspectRatio="xMidYMid meet">
 <g fill="#f07c37">
  <path d="M450.6 2873.3 c1.4 -3.8 5 -13.1 7.9 -20.8 2.9 -7.7 9.9 -25.9 15.5 -40.5 5.6 -14.6 15.1 -39.8 21.1 -56 6.1 -16.2 11.9 -31.7 12.9 -34.5 1.1 -2.7 10.7 -29 21.5 -58.4 10.8 -29.3 25.4 -68.7 32.5 -87.5 7 -18.7 15.6 -41.7 19.1 -51.1 6.9 -18.9 26 -63.8 64.9 -152 4.9 -11 17.7 -40.2 28.5 -65 28.9 -66 30 -68.3 35.3 -80.2 l4.8 -10.8 -0.8 -59 -0.9 -59 -5 -21.5 c-2.7 -11.8 -5.1 -21.6 -5.3 -21.7 -0.5 -0.5 -42.4 73.3 -95.1 167.2 -53.1 94.6 -70 124.4 -71.5 125.9 -0.5 0.4 -16.1 -1 -35.7 -3.3 -45 -5.4 -70.4 -8.4 -110 -12.9 l-32.1 -3.7 -32.9 -29.1 c-18 -16 -41.1 -36.4 -51.3 -45.3 -17.3 -15.1 -18.5 -16.4 -18.7 -19.9 -0.2 -2 -1.9 -23.5 -3.9 -47.7 -2 -24.2 -3.4 -46.7 -3.1 -50 0.4 -5.3 4.8 -31.2 22.3 -130.5 2.4 -14 13.7 -76.6 25 -139 l20.6 -113.5 10 -24.5 c5.5 -13.5 13.8 -33.9 18.5 -45.5 4.7 -11.5 11.6 -28.4 15.3 -37.5 3.7 -9.1 12.3 -30 19 -46.5 13.6 -33.5 49.9 -121.3 64 -155 5.1 -12.1 11.5 -27.4 14.2 -34 2.7 -6.5 15.1 -36 27.5 -65.5 l22.6 -53.5 -3.3 -13 c-1.8 -7.1 -4.7 -18.4 -6.5 -25 -1.8 -6.6 -6.7 -25 -11 -41 l-7.7 -29 1.1 -14 c1.9 -23.7 9.2 -104.9 9.5 -106 0.2 -0.6 11.1 -7.8 24.2 -16 18.4 -11.5 26.4 -15.8 34.9 -19.1 11.6 -4.4 58.8 -22.9 86.2 -33.7 l16.2 -6.4 0.5 6.6 c1.5 17.1 2.9 26.7 4.1 29.1 0.7 1.4 6.8 16.3 13.5 33.1 6.7 16.7 12.7 31 13.2 31.7 0.6 0.7 0.9 1.4 0.7 1.7 -0.2 0.2 -11 1.1 -23.9 2 -12.9 0.9 -24.3 1.8 -25.2 2.1 -0.9 0.3 -5.7 4.9 -10.5 10.2 l-8.9 9.7 0.9 76.8 1 76.9 -3.8 29.6 -3.8 29.7 -3.7 4.5 c-3.6 4.4 -3.9 5.6 -12.5 43 l-8.8 38.5 -9 14.5 c-4.9 8 -10.2 16.3 -11.8 18.5 -2 3 -3.4 7.3 -5.1 16 -1.8 9 -2.8 12.1 -4 12.3 -0.9 0.2 -1.8 -0.3 -2 -1.2 -0.2 -0.9 -9 6.9 -23.3 20.5 -12.6 12 -29.9 28.3 -38.2 36.1 l-15.3 14.3 0.6 14 c0.3 7.7 1.4 33.8 2.4 58 1.1 24.2 2.5 56.5 3.2 71.7 l1.2 27.7 7.8 8.3 c5 5.4 7.7 7.7 7.8 6.6 0 -1 0.6 -1.8 1.3 -1.8 1.1 0 44.6 45.1 83.3 86.3 l12.9 13.8 4.5 -0.6 c6.8 -0.8 113.6 -10.5 116.5 -10.5 1.6 0 2.5 0.6 2.5 1.5 0 1.2 0.8 1.4 3.8 1 3.4 -0.5 41.4 -4.1 49.2 -4.7 l3.4 -0.3 14.8 -54.5 c17.7 -65.2 16.6 -60.5 14.5 -59.7 -1.3 0.5 -1.7 0.1 -1.7 -1.8 0 -1.7 0.9 -2.9 3.1 -4.1 1.8 -0.9 19 -12 38.3 -24.7 19.3 -12.6 38.1 -24.9 41.7 -27.3 4.7 -2.9 9.2 -7.2 14.9 -14.1 4.5 -5.4 9.4 -10.2 10.8 -10.7 1.5 -0.6 9.2 -3.4 17.2 -6.4 16.6 -6.1 44.8 -14.2 49.7 -14.2 2.9 0 3.3 0.3 3.3 2.8 0 1.5 0.5 17.3 1.1 35.2 1 30 1.3 33.9 4.5 51.5 1.9 10.5 6.1 34.3 9.4 53 3.3 18.7 8 45.5 10.5 59.5 2.5 14 7.3 40.8 10.6 59.5 5.7 32.3 6.4 35.4 14.9 62 18.3 58.1 43.7 134.4 46 138.4 0.5 0.9 1.4 -0.5 2.8 -4.5 1.1 -3.3 4.8 -13.1 8.2 -21.9 l6.3 -16 3.8 -27.5 c2.1 -15.1 8.1 -57.9 13.4 -95 9.3 -65.5 16.6 -122 27.9 -216 9.4 -77.3 14.6 -122.3 22.2 -190.5 3.1 -28 5.8 -51.2 6 -51.4 0.2 -0.2 1.1 0.6 2.1 1.7 l1.8 2.2 13.9 -3.6 c12.3 -3.1 15.2 -4.3 25 -10.1 6.1 -3.6 14.7 -9.4 19.1 -12.8 l8.1 -6.3 1.7 -13.6 1.6 -13.7 -4.5 -15.2 c-2.5 -8.4 -7 -23.2 -10 -33 l-5.5 -17.8 11.7 -20.4 c6.3 -11.3 12 -21.7 12.5 -23.2 0.5 -1.6 2 -14 3.5 -27.8 2.1 -20.1 3.6 -28.9 7.4 -45 3.8 -15.9 4.5 -20.1 3.4 -20.3 -2.4 -0.6 -0.5 -2.2 2.5 -2.2 2.8 0 17.7 6 43.3 17.4 10.5 4.6 14 5.7 20 6.1 4 0.3 21.2 1.5 38.2 2.6 l31 2 28 17.1 c15.5 9.4 29.2 17.9 30.6 18.8 1.6 1.1 11.6 3.2 29.1 6.1 l26.7 4.3 3.3 6.7 c2.1 4.4 4 6.9 5.3 7.3 1.2 0.3 6 0.6 10.7 0.6 4.8 0 18 0.5 29.5 1.1 20.6 1.1 21 1.2 31.9 5.1 10 3.6 22.7 6.6 66.8 16 12.4 2.7 14.7 3.4 14.7 5 0 1 -0.6 1.8 -1.4 1.8 -0.8 0 -1.6 1 -1.9 2.3 -6.2 24.6 -26.8 123 -26 123.8 1 0.9 131.8 66.9 132.6 66.9 0.5 0 26.5 -28.1 33.3 -36.1 2.2 -2.6 3 -4.4 2.7 -6.1 -0.4 -1.9 1.8 -4.7 11.8 -15.3 6.7 -7.2 22.8 -24.5 35.8 -38.5 12.9 -14 29.2 -31.6 36.1 -39 l12.7 -13.5 1.7 -8.5 c1.5 -7 18.3 -83.8 20.1 -91.8 0.4 -1.6 1.1 -2.2 2.3 -1.8 1.5 0.5 2.3 -2.2 6.4 -20.6 l4.6 -21.1 -26 -40.1 c-14.4 -22.1 -26.6 -40.7 -27.2 -41.4 -1 -1 -7.6 0.9 -32.7 9.3 -35 11.7 -33.9 11.3 -32.1 12.1 2.1 1 1.3 2.4 -1.4 2.4 -2.8 0 -1.7 0.8 -50.9 -38.4 -57.9 -46.2 -72.1 -58.1 -87 -72.5 -8.2 -8.1 -25.9 -25 -39.3 -37.6 l-24.3 -23 -32.7 -14.6 c-18 -8 -48.7 -21.6 -68.2 -30.3 -19.5 -8.7 -37.7 -16.8 -40.5 -18.1 -2.7 -1.2 -10 -6.3 -16.1 -11.1 -6.1 -4.9 -20.1 -15.9 -31 -24.5 l-19.9 -15.5 -14.7 -4.8 c-12.4 -3.9 -14.8 -5 -14.8 -6.6 0 -1.1 0.6 -2 1.4 -2 0.9 0 2.2 -2.6 3.4 -6.7 3.4 -11 23.4 -80.6 23.9 -82.9 0.4 -1.7 -3.9 -5.4 -26.4 -22.6 -14.7 -11.3 -27.8 -21.1 -29 -21.9 -2 -1.2 -2.4 -3.9 -0.8 -5.7 0.3 -0.3 28.4 10.6 51.2 19.9 14.9 6.1 20.8 9.1 23.9 11.9 2.7 2.5 5.8 4.1 9.2 5 5.7 1.3 6.2 1.8 13.1 14.1 3.1 5.4 4.8 7.6 6 7.3 0.9 -0.2 13.5 -2.6 28.1 -5.4 14.6 -2.8 50.1 -9.9 78.9 -15.6 l52.4 -10.5 35.6 -0.9 c19.6 -0.5 54.3 -1.4 77.1 -2 55 -1.4 185.1 -4.8 226.9 -6 l33.5 -0.9 19 3 c10.5 1.6 23.8 3.7 29.6 4.6 5.8 0.8 10.6 1.6 10.7 1.7 0.1 0 2.2 10 4.7 22.1 2.5 12.1 7.9 38 12 57.5 4.2 19.5 11.7 56.3 16.7 81.8 l9.2 46.2 13.2 17.3 c45.1 59.2 92.5 122.1 143.8 190.5 32.3 43 66.4 87.6 75.9 99 27.7 33.3 40.5 48.9 54 65.3 6.9 8.5 24.6 30 39.3 47.9 l26.7 32.5 12.3 25 c6.7 13.8 21.6 43.9 33 67 19.4 39.4 23.2 47.1 36.5 74.9 2.8 6 12.6 26.3 21.7 45 19.6 40.5 33.1 68.8 40.3 84.6 2.9 6.3 6.3 14 7.7 17 1.4 3 5.4 11.9 8.9 19.7 3.5 7.8 8.2 17.1 10.3 20.7 4.4 7.2 22.7 38.3 39.4 67 6.2 10.5 11.4 20.7 11.8 23 3.7 18.7 12 64.8 11.7 65 -0.1 0.1 -8.4 5.9 -18.3 12.8 -9.9 6.9 -31.5 21.9 -48 33.3 -16.5 11.5 -40.6 28.3 -53.5 37.4 l-23.5 16.5 -44.7 21.3 c-24.7 11.7 -45.5 21.3 -46.3 21.3 -1.7 0 -7.1 -2 -51.5 -19 -19 -7.3 -38.3 -14.5 -42.8 -16.2 -4.6 -1.6 -19.6 -8.5 -33.4 -15.4 l-25 -12.4 -25.7 -19.7 c-14.1 -10.8 -27.4 -21.1 -29.6 -22.8 -2.2 -1.8 -19.1 -14.6 -37.5 -28.7 -47 -35.7 -71.5 -54.4 -78.5 -59.8 -3.3 -2.5 -16.8 -12.9 -30 -23 -13.2 -10.1 -41.3 -31.7 -62.5 -47.9 -57.1 -43.8 -58 -44.4 -58.4 -44 -0.2 0.2 -5.7 20.7 -12.1 45.4 l-11.7 45 -0.9 23 c-0.5 12.7 -1.8 45.6 -2.9 73.2 -2.1 54.5 -4.7 116.9 -5.4 132.8 -0.3 6.8 -4.2 30.5 -11.9 73.5 -6.4 34.9 -13.4 74.3 -15.7 87.5 -2.3 13.2 -7.7 44 -12 68.5 -4.3 24.5 -9.9 56.7 -12.5 71.5 -5.3 30.9 -8.8 50.8 -15 85.5 -8 44.6 -21.3 119.1 -25.5 143 -2.3 12.9 -7.5 42.1 -11.6 64.9 l-7.5 41.5 -2.9 61.7 c-1.7 34 -3.9 77.4 -5 96.6 -1.1 19.1 -2 35.8 -2 37.1 l0 2.2 -685 0 -685 0 2.6 -6.7z"/>
  <path d="M722.7 1214.3 c-0.4 -0.3 -0.7 -4.2 -0.7 -8.5 0 -7 0.2 -7.8 1.9 -7.8 1.3 0 2.2 1.2 3.1 4.5 1.3 4.8 1.9 5.2 3.8 3.3 0.9 -0.9 1.2 -0.6 1.2 1.5 0 4.9 -2 7.7 -5.5 7.7 -1.7 0 -3.5 -0.3 -3.8 -0.7z"/>
  <path d="M1280 1083.7 c0 -0.8 0.8 -1.7 1.8 -1.9 1.5 -0.4 2.8 -4.8 7 -23.4 2.9 -12.6 6.3 -28.1 7.6 -34.4 2.3 -11.2 3 -12.7 25.1 -57.4 20.2 -40.8 22.6 -46.1 21.1 -47.1 -3 -2.2 -1.6 -2.8 5 -2.2 6.1 0.6 7.2 1.1 13.8 6.2 3.9 3.1 15.2 11.7 25.1 19.2 17.8 13.5 18.1 13.8 25.3 24.4 11.2 16.8 13.4 13.4 -25 39.6 -17.8 12.1 -41.7 28.3 -53.2 35.9 l-20.9 13.9 0.7 13.1 0.7 13.1 -6.8 0.6 c-21 1.9 -27.3 2 -27.3 0.4z"/>
  <path d="M717.3 1016.4 c-0.6 -1 -4.5 -10.7 -8.6 -21.4 -4.2 -10.7 -8.3 -21.1 -9.1 -23.1 l-1.5 -3.6 35.2 -14.1 c101.8 -40.8 121.8 -49.4 156.7 -67.2 18.4 -9.5 33.9 -17.6 34.4 -18.1 0.5 -0.5 0.4 -1.4 -0.4 -2.4 -1.1 -1.3 -0.8 -1.5 1.6 -1.5 2.4 0 5 2.4 15.9 14.1 7.2 7.8 13.8 14.5 14.8 15 0.9 0.6 1.7 2.1 1.7 3.6 0 2.1 -0.3 2.3 -1.4 1.4 -1.8 -1.5 -2.3 0.7 -3.2 14.7 -0.5 8.1 -1 10.5 -2.3 11.2 -3.9 2 -193.6 51 -197.7 51 -1.9 0 -13.1 7.8 -19.1 13.3 -5.7 5.2 -10.1 12.4 -13.4 21.5 -2.2 6.5 -2.8 7.3 -3.6 5.6z"/>
  <path d="M1118.8 974.9 c-7 -23.9 -13 -43.4 -13.8 -45 -0.8 -1.5 1.2 -2.1 15.8 -4.9 9.2 -1.7 18.9 -3.6 21.5 -4.2 4.4 -0.9 7.2 -3.1 27.8 -21.4 20.2 -18 23.3 -20.4 26.2 -20.4 2.1 0 4.6 0.9 6.3 2.3 1.8 1.5 8.8 3.7 20.8 6.8 13.9 3.5 18.2 4.9 18.4 6.2 0.2 1 -0.3 1.7 -1.2 1.7 -0.8 0 -14 11.9 -29.2 26.5 l-27.6 26.6 -24.1 16.2 c-13.3 8.9 -24.6 16.5 -25.2 17 -0.6 0.4 -0.5 1 0.5 1.6 2.2 1.5 1.1 1.9 -6.1 2.7 l-6.5 0.6 -3.6 -12.3z"/>
  <path d="M1260 835.6 l-21.5 -6.2 -0.3 -3.8 c-0.3 -3.3 2.2 -7.9 21.8 -41.4 12.2 -20.7 30.7 -51.9 41.1 -69.3 10.4 -17.3 18.9 -32 18.9 -32.7 0 -1.8 2.8 -1.4 3.2 0.4 0.2 1 5.7 -4.9 14.8 -15.7 8 -9.5 15.1 -18 15.8 -18.8 1.1 -1.4 1.3 -1 0.8 2.2 -0.3 2.1 -1.9 14.5 -3.6 27.5 l-3.2 23.7 6.5 25.1 6.5 25.2 -3.9 13.7 -3.9 13.7 -12.9 13.7 c-7.1 7.5 -20 20.6 -28.5 29.1 -14.8 14.6 -17.6 18 -14.1 16.6 1 -0.4 1.5 0.1 1.5 1.4 0 1.8 -0.7 2 -8.7 1.9 -7.6 -0.1 -11.7 -1 -30.3 -6.3z"/>
  <path d="M1317.6 657.8 c-0.4 -2.9 -2.9 -30.3 -5.6 -60.8 -9.2 -103.5 -13.3 -148.3 -26 -287.5 -4.7 -51 -4.6 -50.1 -2.2 -50.1 0.9 0 14.4 -9.3 29.9 -20.7 15.5 -11.3 28.4 -20.3 28.7 -19.9 0.2 0.4 2.7 9.7 5.6 20.7 2.9 11 6.7 25 8.6 31.1 3 10.1 3.4 13 4.6 32.9 1.1 20.6 1.4 22 3.6 24.7 1.3 1.5 3.4 2.8 4.5 2.8 1.2 0.1 12.3 2.7 24.7 5.8 l22.5 5.7 3.1 9.3 c1.8 5.1 5.3 15.4 7.9 22.9 l4.8 13.6 -0.7 28.6 c-0.6 25.6 -1.1 31.7 -4.8 58.6 l-4 30 -5.9 10.7 c-3.3 5.9 -9.3 17.2 -13.4 25 -7 13.5 -8.1 15 -20.3 27.8 l-12.8 13.5 -3.9 17 -3.9 17 -6.1 6.5 c-3.4 3.6 -12 12.8 -19.2 20.5 -7.1 7.7 -13.7 14.6 -14.7 15.4 -0.9 0.7 -1.6 2 -1.6 2.7 0 0.8 -0.6 1.4 -1.4 1.4 -1 0 -1.6 -1.6 -2 -5.2z"/>
  <path d="M1246 241.9 c-12.4 -6.6 -36 -17.9 -52.5 -25.1 -16.5 -7.2 -37.6 -16.4 -46.9 -20.4 l-17 -7.4 -36.8 -7 c-20.2 -3.9 -42.1 -8.1 -48.6 -9.5 -8.7 -1.7 -19.3 -2.8 -40.3 -4 -47.3 -2.7 -75 -4 -75.4 -3.7 -0.4 0.4 -24.8 12 -54.3 25.8 -14.8 6.9 -23.5 10.4 -25.7 10.4 -3.9 0 -4.4 -0.9 -1.6 -2.7 1.1 -0.7 2.2 -2.9 2.6 -5.5 0.4 -2.4 2 -6.3 3.6 -8.7 1.6 -2.5 5.5 -9.5 8.6 -15.5 3.3 -6.6 7.9 -13.7 11.3 -17.6 3.1 -3.6 8.3 -9.8 11.5 -13.8 3.2 -4 15.5 -16.6 27.4 -27.9 19.8 -18.8 23.2 -21.6 41.1 -33.6 10.7 -7.1 22.2 -14.9 25.5 -17.2 3.3 -2.3 11.9 -6.5 19 -9.3 7.2 -2.8 23.7 -9.4 36.9 -14.7 l23.8 -9.6 37.2 3.1 37.1 3.1 25 6.4 c13.8 3.5 26.4 6.7 28 7.1 1.7 0.3 14.7 6.4 29 13.6 24.9 12.4 26.8 13.6 45.1 27.4 18.7 14.2 19.3 14.7 26 24.7 3.8 5.6 10.7 15.6 15.3 22.2 4.9 7 10.2 16 12.6 21.5 2.3 5.2 7.6 17 11.8 26.2 l7.6 16.7 -2.7 7.1 -2.8 7 -27.4 19.1 c-15.1 10.5 -27.7 19.3 -28 19.6 -0.3 0.2 0.3 1 1.3 1.7 2.5 1.9 2.1 2.6 -1.5 2.5 -2.1 -0.1 -11.3 -4.3 -25.8 -12z"/>
 </g>
 <g fill="#eddfbc">
  <path d="M1077.7 2068.9 c-8 -21.8 -30.9 -91.3 -47.7 -144.4 -8.5 -26.6 -9.2 -29.7 -14.9 -62 -3.3 -18.7 -8.1 -45.5 -10.6 -59.5 -2.5 -14 -7.2 -40.8 -10.5 -59.5 -3.3 -18.7 -7.5 -42.5 -9.4 -53 -3.3 -17.8 -3.5 -21.2 -4.6 -54 -0.7 -19.2 -1.3 -35.1 -1.4 -35.2 -0.7 -0.7 -34 9.3 -46.6 13.9 -8 3 -15.7 5.8 -17.2 6.4 -1.4 0.5 -6.3 5.3 -10.8 10.7 -6.2 7.5 -10.1 11 -16.3 15.1 -4.5 2.9 -22.6 14.7 -40.2 26.3 -37.3 24.4 -38.1 25 -75.5 46.3 -15.7 9 -28.6 16.4 -28.8 16.6 -0.4 0.3 -15.7 52.4 -20.7 70.7 -2.1 7.5 -4.2 13.7 -4.7 13.7 -0.5 0 -25.5 2.3 -55.6 5 -30.1 2.8 -58.1 5.3 -62.2 5.6 l-7.5 0.6 -18.1 -19.3 c-10 -10.7 -31.2 -33.1 -47.2 -49.9 l-29.1 -30.4 -0.6 -8.6 c-0.4 -4.7 -1.5 -17.9 -2.4 -29.5 l-1.7 -21 3.8 -28 c2.1 -15.4 4.5 -34 5.5 -41.3 l1.6 -13.3 8.6 -8.2 c4.7 -4.6 11.5 -11 14.9 -14.3 l6.4 -6 11.4 -57.3 c10.2 -51.3 11.7 -57.7 14.3 -61.4 1.5 -2.3 6.9 -10.7 11.8 -18.7 l9 -14.5 8.8 -38.5 c8.6 -37.4 8.9 -38.6 12.5 -43 l3.7 -4.5 3.8 -29.7 3.8 -29.7 -1 -76.8 -1 -76.8 8.5 -9.3 c4.7 -5.1 9.3 -9.7 10.1 -10.2 2.4 -1.2 51.1 -4.4 52 -3.4 0.9 1 0.1 -0.8 25.3 61.4 l18 44.5 -0.1 7.9 c-0.1 9.1 0.5 10.7 2.8 7.3 0.9 -1.4 11.9 -17.3 24.6 -35.4 26.4 -37.7 50.9 -74.1 64.4 -95.8 11 -17.6 34.8 -50.5 36.5 -50.5 1.1 0 46.4 21.5 47.4 22.4 0.4 0.4 -17.4 56.3 -20.2 63.6 -1.9 4.7 -9 21.3 -19.3 45 -4.7 10.7 -18.4 39.2 -30.5 63.4 -15.4 30.7 -23.6 48.4 -27.5 59 -7.6 20.8 -16.4 46.9 -16 47.2 0.2 0.2 10.7 -8.2 23.3 -18.8 12.6 -10.5 30.1 -24.9 38.9 -32.1 12.9 -10.4 80.4 -72.9 102 -94.2 2.7 -2.7 16.3 -17.9 30 -33.8 l25 -28.8 19.3 -12 c16.9 -10.6 19.5 -11.9 21 -10.7 0.9 0.7 10.3 9.5 20.8 19.6 l19.2 18.3 -4.2 10.2 c-2.3 5.6 -5.8 13.1 -7.9 16.5 -2.1 3.5 -8.1 14.3 -13.4 24 -5.3 9.8 -11.1 19.3 -12.7 21.3 -1.7 1.9 -14.1 16.3 -27.6 31.8 -13.5 15.6 -27.8 32.7 -31.9 38 -8 10.5 -33.2 45.7 -34.5 48.1 -1.9 3.8 26.9 -29.8 43.1 -50.3 7.5 -9.5 15 -18.9 16.7 -20.9 1.7 -2.1 12.2 -10 23.4 -17.6 l20.4 -13.9 20.6 12.9 c17.1 10.7 20.7 13.3 20.6 15.1 -0.1 1.2 -7.5 18.2 -16.5 37.7 l-16.3 35.5 -20 29 c-11 16 -27.9 40.5 -37.6 54.5 -9.8 14 -21.9 31.8 -27 39.5 -6.2 9.4 -13 18 -20.6 26.1 l-11.4 12.1 3.8 0.6 c13.1 2 15.5 1.9 27.9 -1.2 6.8 -1.7 19.1 -4.7 27.5 -6.6 14.9 -3.5 15.7 -3.8 36.3 -14.7 22.3 -11.9 22.8 -12.2 53 -38.8 10.8 -9.5 13.6 -11.4 28.1 -18.8 l16.1 -8.2 13.4 19 c7.4 10.5 14 20.1 14.8 21.3 1.6 2.6 -2 37 -17.9 172.2 -13.7 116.3 -25.6 210.7 -36.5 287.5 -5.3 37.1 -11.3 79.9 -13.4 95 -3.8 27.4 -3.9 27.6 -9.6 42.5 -3.2 8.3 -7.7 20.1 -10 26.4 l-4.2 11.4 -1.6 -4.4z"/>
  <path d="M1812.7 1446 c-0.6 -1.7 -2.3 -15.3 -6.7 -54 -1.6 -14.6 -3.3 -28.2 -3.6 -30.3 -0.6 -4 -1.2 -4.6 -45.9 -39.7 l-16 -12.6 -38.5 -8.7 c-36.1 -8.1 -81 -18 -94.4 -20.7 -3.3 -0.7 -11.4 -3.2 -18.1 -5.5 -12 -4.3 -12.1 -4.3 -32.9 -5.4 -11.5 -0.6 -24.7 -1.1 -29.5 -1.1 -4.7 0 -9.5 -0.3 -10.7 -0.6 -1.3 -0.4 -3.2 -2.9 -5.3 -7.3 l-3.3 -6.7 -26.7 -4.3 c-17.5 -2.9 -27.5 -5 -29.1 -6.1 -1.4 -0.9 -15.1 -9.4 -30.6 -18.8 l-28 -17.1 -31 -2 c-17 -1.1 -34.2 -2.3 -38.2 -2.6 -6 -0.4 -9.5 -1.5 -20 -6.1 -7 -3.1 -24.8 -10.8 -39.7 -17.1 -14.8 -6.4 -27.3 -11.8 -27.7 -12.2 -0.4 -0.3 -1.2 -5.1 -1.9 -10.5 -0.9 -7.3 -0.9 -11.6 0 -16.6 0.6 -3.7 2.7 -17.4 4.6 -30.5 1.9 -13.1 3.6 -24 3.8 -24.1 0.3 -0.3 17.9 -1.8 53.7 -4.5 7.4 -0.6 13.5 -1.1 13.6 -1.2 0.1 -0.1 -0.1 -6 -0.6 -13.2 -0.4 -7.1 -0.7 -13 -0.6 -13 1.2 -0.3 103.4 -69.2 105.9 -71.5 0.5 -0.4 -2.4 -5.7 -6.5 -11.7 -7.2 -10.9 -7.5 -11.1 -25.3 -24.6 -9.9 -7.5 -21.1 -16.1 -25 -19 l-7 -5.4 -32 -6.8 c-17.6 -3.7 -35.6 -7.5 -40 -8.5 -13.3 -2.9 -75.9 -19 -77.1 -19.8 -0.6 -0.4 -2.3 -1.5 -3.7 -2.5 l-2.6 -1.9 -22.3 19.9 c-12.3 11 -22.9 20.3 -23.6 20.7 -1.2 0.7 -40.4 8.6 -42.8 8.6 -0.6 0 -4.3 -3.9 -8.2 -8.7 -12.8 -16 -12.7 -15.9 -29.5 -19.4 l-14.7 -3.1 -31.2 8 c-17.2 4.5 -32.9 8.3 -34.8 8.7 -3.3 0.6 -5 -0.3 -20.5 -10 -16 -10 -17.7 -11.3 -29 -23.3 -15.3 -16.3 -33.6 -37.2 -55.1 -63.2 -17.1 -20.6 -53.9 -65.8 -56.1 -68.9 -0.6 -0.9 -3.4 -9.9 -6.3 -20.1 -2.8 -10.2 -6.2 -22.3 -7.5 -27 -1.3 -4.7 -5.3 -19.1 -8.9 -32 -3.6 -12.9 -8.1 -28.9 -10 -35.5 -1.9 -6.6 -5.7 -20.1 -8.5 -30 -2.7 -9.9 -10 -35.8 -16.1 -57.5 -6.1 -21.7 -16.3 -58.2 -22.6 -81 -6.3 -22.8 -13 -46.9 -14.9 -53.5 -18.6 -66 -17.1 -58.7 -14.4 -68.6 2 -7.3 2.5 -8.2 6 -10.2 3.4 -1.9 3.9 -2.6 3.9 -6 0 -3.2 1.7 -6.5 9.6 -18.5 5.3 -8.1 15.2 -21.9 21.9 -30.7 6.8 -8.9 16.1 -21.4 20.8 -27.9 l8.6 -11.8 27.3 -20.5 c21.2 -16 29.2 -21.4 35.8 -24.3 7.6 -3.3 53.3 -24.8 68.3 -32.1 l5.8 -2.8 26.2 1.4 c76 4.2 82.1 4.6 93.9 7 6.5 1.4 28.4 5.6 48.6 9.5 l36.8 7 17 7.4 c9.3 4 30.4 13.2 46.9 20.4 34.6 15.1 80.1 38.5 85.1 43.8 l3.3 3.5 4 44.7 c8 87.6 13.2 144.3 17.2 188.2 2.2 24.5 6.7 74.4 10 111 3.3 36.6 6.3 69.7 6.6 73.7 l0.6 7.2 -19 31.8 c-39.3 65.6 -63.5 107.5 -62.7 108.2 0.5 0.5 11 3.7 23.3 7.1 l22.4 6.3 14.6 -1.2 c8 -0.6 25.6 -2.3 39 -3.7 28.1 -2.8 22.4 -3.6 56.1 7.4 l20.5 6.6 19.9 15.6 c10.9 8.5 24.9 19.5 31 24.4 6.1 4.8 13.4 9.9 16.1 11.1 2.8 1.3 21 9.4 40.5 18.1 19.5 8.7 50.2 22.3 68.2 30.3 l32.7 14.6 24.3 23 c13.4 12.6 31.1 29.5 39.3 37.6 14.9 14.5 29.4 26.5 87.5 72.9 16.8 13.3 37.3 29.7 45.6 36.4 8.4 6.7 16 13.5 17 15.1 0.9 1.7 7.8 13.1 15.3 25.4 l13.6 22.5 10.2 6.5 c5.7 3.6 20.4 13.1 32.8 21 12.4 7.9 22.5 14.8 22.5 15.4 0 0.5 -4.5 21.5 -10 46.6 -5.6 25.1 -10.6 48.1 -11.2 51.1 -1.2 5.3 -2.1 6.5 -25.3 31.5 -13.2 14.3 -33.4 36 -45 48.4 -11.5 12.3 -22.9 24.4 -25.2 27 -3 3.3 -4.3 4.2 -4.6 3.1z m-746.2 -607 c1.8 -0.7 4 -0.6 7 0.2 3.7 1 5.9 0.9 12.7 -0.5 4.6 -0.9 9.5 -1.4 11.1 -1 3.4 0.7 8.4 -1.3 9.8 -3.9 1.3 -2.4 -1 -6.3 -5.1 -8.6 -1.6 -0.9 -3.1 -2.6 -3.4 -3.7 -0.3 -1.2 -2.2 -3.1 -4.3 -4.2 -2.1 -1.2 -5.4 -3.8 -7.3 -5.9 l-3.5 -3.7 6.3 0.7 c3.8 0.3 7.3 1.3 9 2.5 3.2 2.4 8.2 3.8 8.2 2.3 0 -0.6 -1.7 -2.1 -3.7 -3.3 -5.8 -3.5 -13.7 -10.1 -26.3 -21.9 -6.6 -6.1 -13.9 -11.9 -17 -13.5 -3 -1.6 -6.2 -3.4 -7 -4.1 -2.5 -2.1 -13.1 -2.7 -16 -1 -1.4 0.9 -4.1 2.3 -6 3.2 -23 10.6 -24.4 11.6 -27.5 18.5 -1.7 3.7 -1.7 4.1 0 8.2 4.7 10.8 17.3 24.1 30.9 32.5 9.8 6.1 25.7 9.7 32.1 7.2z m-200.5 -58.9 c7.9 -2.4 7.9 -3 -0.1 -10.5 -5.3 -5.1 -7.4 -6.5 -8 -5.5 -1.3 2.5 -3 13.7 -2.4 16.2 0.7 2.6 1.1 2.6 10.5 -0.2z m189.1 -51.2 c2.8 -2.8 2 -7.8 -1.8 -12.6 -1.5 -1.9 -3.3 -4.4 -3.9 -5.4 -0.6 -1 -1.8 -2.7 -2.7 -3.7 -1 -1 -1.7 -2.5 -1.7 -3.2 0 -0.7 -0.7 -2.1 -1.6 -3.1 -1.7 -1.9 -2.7 -5.3 -4.9 -17.4 -2.4 -12.8 -2.6 -13.8 -4 -17.2 -1.8 -4.3 -2.1 -9.4 -0.7 -12 1.7 -3.1 1.5 -6.3 -0.4 -6.3 -1 0 -1.4 -0.6 -1 -1.7 0.3 -1 0.8 -4 1.2 -6.8 0.3 -2.7 1.1 -5.5 1.6 -6.2 0.5 -0.7 0.8 -2.7 0.7 -4.5 -0.2 -1.8 0 -3.8 0.3 -4.3 0.3 -0.6 0.9 -3.2 1.3 -6 1.2 -8.6 7.3 -27.4 14.1 -43.3 2.4 -5.7 4.4 -11.4 4.4 -12.7 0 -1.4 0.4 -2.5 0.9 -2.5 1 0 6.6 -9.8 7.7 -13.4 0.3 -1.1 2.4 -4.4 4.5 -7.1 2.1 -2.8 5 -7.7 6.4 -10.8 2.6 -6 11 -17.5 41.4 -57 41.4 -53.7 62.1 -82.9 62.1 -87.7 0 -1.1 0.6 -2.3 1.4 -2.6 0.8 -0.3 2.2 -2.4 3.1 -4.7 0.9 -2.3 2.2 -4.9 2.9 -5.7 0.7 -0.8 1.8 -3.6 2.4 -6.1 0.9 -3.7 0.9 -5.7 -0.3 -9.7 -1.4 -4.6 -2.2 -5.5 -8.3 -9.5 -3.7 -2.5 -10.4 -6.4 -14.9 -8.8 -4.6 -2.4 -8.3 -4.6 -8.3 -5 0 -0.9 5.1 -3 6 -2.4 1.2 0.7 10 -1.5 10 -2.5 0 -0.5 -2.1 -2.6 -4.7 -4.9 -5 -4.2 -14.5 -9.2 -28.1 -14.7 -9.7 -3.9 -54.1 -15.6 -71.7 -18.8 -6.6 -1.2 -13.1 -2.8 -14.4 -3.5 -2 -1.1 -3.1 -1.1 -6.4 0 -3.6 1.2 -4.1 1.1 -5.3 -0.6 -1.2 -1.6 -1.7 -1.7 -3.8 -0.6 -1.9 1.1 -3.1 1.1 -6.1 0.1 -2.4 -0.8 -6 -1 -9.6 -0.6 -4.8 0.5 -5.9 0.3 -5.9 -0.9 0 -1.8 -4.9 -2 -10 -0.4 -1.9 0.7 -9.1 1.2 -16 1.4 -10.8 0.1 -14.8 0.7 -29.9 4.3 -9.5 2.3 -18.8 4.2 -20.6 4.2 -2.1 0 -3.9 0.7 -4.7 1.8 -1.7 2.4 -4.7 3.5 -6.2 2.3 -0.7 -0.6 -5.1 1 -12.5 4.5 -9.7 4.6 -16.1 6.6 -16.1 5 0 -1.4 2.1 -5.6 2.8 -5.6 0.4 0 3 -2 5.6 -4.5 4.5 -4.1 4.7 -4.5 2.4 -4.5 -3.1 0 -16.9 6.6 -25.9 12.5 -9.1 5.9 -24.4 20.7 -32.4 31.4 -7.2 9.5 -16.2 26.4 -19.4 36.1 -2.7 8.5 -5 23.2 -5.3 34.5 -0.3 9.7 2.9 30.2 5.9 37.8 3.8 9.7 12 17.7 23.5 22.9 9.3 4.3 25.6 5.4 30.5 2.2 1.2 -0.8 2.9 -1.4 3.7 -1.4 0.8 0 1.6 -0.5 1.8 -1.2 0.3 -0.9 1.4 -0.7 4 0.5 4.5 2.1 8 2.2 11.8 0.2 2.7 -1.4 3 -2 3 -6.6 0 -3.4 -0.8 -6.5 -2.5 -9.7 -1.4 -2.6 -2.5 -5.5 -2.5 -6.5 0 -1 -0.6 -2 -1.4 -2.3 -0.8 -0.3 -1.4 -2 -1.4 -4.2 -0.1 -2 -0.4 -7.2 -0.8 -11.4 -0.4 -5.5 -0.3 -7.8 0.5 -7.8 0.6 0 1.1 -1.2 1 -2.7 -0.1 -2.5 1.4 -7.6 6.6 -22.3 1.9 -5.1 8.9 -15 10.8 -15 2.1 0 9 -8.1 7.9 -9.2 -1.1 -1.1 3.3 -6.8 5.3 -6.8 0.6 0 2.2 -1.1 3.5 -2.5 1.3 -1.4 2.7 -2.5 3.1 -2.5 1.1 0 14.4 -8.2 14.7 -9.1 0.2 -0.5 1.1 -0.9 2 -0.9 1 0 5.7 -2.1 10.6 -4.5 5 -2.5 11.9 -5.2 15.5 -6.1 3.6 -0.8 8 -2.3 9.7 -3.3 4 -2.4 8.9 -3.5 32.9 -7.2 18.3 -2.9 20.7 -3.1 28.5 -2.1 6.5 0.9 10.4 2.1 16.5 5.2 9.3 4.7 11.6 7.7 13.6 18 0.6 3.6 1.6 7 2 7.6 0.9 1.1 0.1 5.4 -1.1 5.4 -0.4 0 -1.5 2.4 -2.4 5.2 -2.4 7.5 -6.8 18.2 -7.8 18.6 -0.4 0.2 -0.8 1.1 -0.8 2 0 1 -1.4 3 -3 4.6 -2.1 1.9 -2.9 3.4 -2.5 4.6 0.4 1.3 -0.2 2.2 -2.2 3.2 -1.7 0.8 -2.9 2.3 -3.1 3.7 -0.5 3.4 -7 12.8 -26.3 38.1 -27.7 36.2 -39.3 53 -36.8 53 1.7 0 10.8 -9.1 14.1 -14.1 3 -4.6 10.4 -10.7 11.5 -9.5 0.4 0.3 -0.9 2.9 -2.7 5.8 -6.7 10.7 -15.5 26.6 -20.7 37.6 -10.3 21.8 -22.4 63.2 -25.3 86.2 -1.3 10.7 -2.7 36.9 -2.4 47.5 0.1 4.4 0.7 11.2 1.4 15 0.6 3.9 1.1 9.7 1.1 12.9 -0.1 3.4 0.6 7.9 1.5 10.3 1.5 4 1.6 4.6 0.2 5.9 -1.4 1.4 -1.7 1.3 -3.5 -1 -2.4 -3 -6.8 -16.4 -9.4 -28.6 -1 -4.7 -2.1 -9.8 -2.6 -11.5 -0.5 -1.6 -0.7 -9.5 -0.6 -17.5 0.2 -16.3 -0.5 -30 -1.7 -30 -1.2 0 -3.5 11.9 -3.6 19 -0.1 3.6 -0.4 12.7 -0.7 20.4 -0.4 9.5 -0.1 15.9 0.8 20.5 4.1 20.7 5.4 24.8 8.2 26.4 0.8 0.5 1.1 1.7 0.7 3.2 -0.4 1.6 0.1 3.4 1.5 5.4 1.2 1.6 2.1 3.3 2.1 3.7 0 2 4.5 9.7 8.1 13.8 4.2 4.7 8.4 6.1 9.5 3.1 0.5 -1.3 1 -1.3 3.6 0.1 3.7 1.9 27.2 9.9 31.4 10.7 3.4 0.6 5.6 -0.7 4.7 -2.9 -0.9 -2.3 2.4 -1.6 4.2 0.9 1.6 2.3 8.2 4.4 14.8 4.6 2.5 0.1 4.3 -0.5 5.8 -2z m224.4 -3.5 l3.8 -4.6 -1.7 -7.5 c-1 -4.1 -2.2 -7.3 -2.6 -7.1 -0.4 0.2 -5.8 4.5 -12 9.5 -6.6 5.5 -10.6 9.5 -9.8 9.8 2.2 0.7 16.2 4.3 17.4 4.4 0.7 0.1 2.9 -2 4.9 -4.5z m-531.8 -359.9 c3.8 -1.5 7.2 -3 7.8 -3.6 0.6 -0.6 -1.2 -3.1 -5.2 -7.1 -3.4 -3.4 -6.5 -6 -6.8 -5.7 -0.8 0.9 -3.7 18.9 -3 18.9 0.3 0 3.5 -1.1 7.2 -2.5z m498.3 -77.2 c0 -2.6 -2.5 -11.5 -4 -14.2 -1.2 -2.3 -1.3 -2.3 -7.6 4 l-6.5 6.4 8.3 2.7 c10.1 3.2 9.8 3.2 9.8 1.1z"/>
  <path d="M1143.1 1057.2 c-4.6 -15.8 -11.3 -38.5 -14.8 -50.5 -3.6 -12 -6.3 -22 -6.1 -22.2 0.2 -0.3 2.9 -0.7 5.9 -1.1 l5.5 -0.6 8.5 7.3 c4.6 4.1 13 11.1 18.6 15.7 10.6 8.5 10.4 8.2 12.7 18.2 0.3 1.5 -2.2 11.7 -6.9 27.5 -4.1 13.8 -7.5 25.4 -7.5 25.9 0 0.9 -6.3 8.6 -7 8.6 -0.3 0 -4.3 -13 -8.9 -28.8z"/>
 </g>
</svg>